<svg width="200" height="50" viewBox="0 0 200 50" fill="none" xmlns="http://www.w3.org/2000/svg">
  <path d="M30.5 10L40 20L30.5 30L21 20L30.5 10Z" fill="#0D9488" />
  <path d="M30.5 5L48 22.5L30.5 40L13 22.5L30.5 5Z" stroke="#0D9488" stroke-width="2" />
  <path d="M60 22H56L64 12H68L60 22Z" fill="#0D9488" />
  <path d="M71 12H75V32H71V12Z" fill="#0D9488" />
  <path d="M80 12H84V15C85 13 87 12 89 12C94 12 96 15 96 20V32H92V21C92 17 91 16 88 16C85 16 84 18 84 21V32H80V12Z" fill="#0D9488" />
  <path d="M100 22C100 16 104 12 110 12C116 12 120 16 120 22C120 28 116 32 110 32C104 32 100 28 100 22ZM116 22C116 18 114 16 110 16C106 16 104 18 104 22C104 26 106 28 110 28C114 28 116 26 116 22Z" fill="#0D9488" />
  <path d="M122 12H126V15C127 13 129 12 131 12C136 12 138 15 138 20V32H134V21C134 17 133 16 130 16C127 16 126 18 126 21V32H122V12Z" fill="#0D9488" />
  <path d="M140 12H144V32H140V12Z" fill="#0D9488" />
  <path d="M146 22C146 16 150 12 156 12C160 12 165 14 166 19H161C160 17 158 16 156 16C152 16 150 18 150 22C150 26 152 28 156 28C158 28 160 27 161 25H166C165 30 160 32 156 32C150 32 146 28 146 22Z" fill="#0D9488" />
  <path d="M168 27V16H165V12H168V7H172V12H176V16H172V26C172 27 172 28 174 28H176V32H173C169 32 168 30 168 27Z" fill="#0D9488" />
  <path d="M178 22C178 16 182 12 188 12C195 12 198 17 198 23V24H182C182 26 184 28 188 28C190 28 192 27 193 26H197C196 30 192 32 188 32C182 32 178 28 178 22ZM194 21C194 19 192 16 188 16C184 16 182 19 182 21H194Z" fill="#0D9488" />
</svg>
